<?xml version="1.0" encoding="utf-8"?>
<!-- Generator: Adobe Illustrator 19.0.0, SVG Export Plug-In . SVG Version: 6.00 Build 0)  -->
<svg version="1.1" id="Layer_1" xmlns="http://www.w3.org/2000/svg" xmlns:xlink="http://www.w3.org/1999/xlink" x="0px" y="0px"
	 viewBox="0 0 28 23" style="enable-background:new 0 0 28 23;" xml:space="preserve">
<g id="XMLID_56_">
	<path id="XMLID_54_" style="fill-rule:evenodd;clip-rule:evenodd;fill:#FFFFFF;" d="M14.4,2.7c0.6,0,1.2-0.5,1.2-1.2
		c0-0.6-0.5-1.2-1.2-1.2c-0.7,0-1.2,0.5-1.2,1.2C13.2,2.1,13.7,2.7,14.4,2.7z"/>
	<path id="XMLID_53_" style="fill-rule:evenodd;clip-rule:evenodd;fill:#FFFFFF;" d="M13.2,4.7c0.6,0,1.2-0.5,1.2-1.2
		c0-0.6-0.5-1.2-1.2-1.2c-0.6,0-1.2,0.5-1.2,1.2C12,4.2,12.5,4.7,13.2,4.7z"/>
	<path id="XMLID_52_" style="fill-rule:evenodd;clip-rule:evenodd;fill:#FFFFFF;" d="M15.6,4.7c0.7,0,1.2-0.5,1.2-1.2
		c0-0.6-0.5-1.2-1.2-1.2c-0.6,0-1.2,0.5-1.2,1.2C14.4,4.2,14.9,4.7,15.6,4.7z"/>
	<path id="XMLID_51_" style="fill-rule:evenodd;clip-rule:evenodd;fill:#FFFFFF;" d="M12,6.8c0.6,0,1.2-0.5,1.2-1.2
		c0-0.6-0.5-1.2-1.2-1.2c-0.6,0-1.2,0.5-1.2,1.2C10.8,6.2,11.4,6.8,12,6.8z"/>
	<path id="XMLID_50_" style="fill-rule:evenodd;clip-rule:evenodd;fill:#FFFFFF;" d="M14.4,6.8c0.7,0,1.2-0.5,1.2-1.2
		c0-0.6-0.5-1.2-1.2-1.2c-0.6,0-1.2,0.5-1.2,1.2C13.2,6.2,13.7,6.8,14.4,6.8z"/>
	<path id="XMLID_49_" style="fill-rule:evenodd;clip-rule:evenodd;fill:#FFFFFF;" d="M16.8,6.8c0.7,0,1.2-0.5,1.2-1.2
		c0-0.6-0.5-1.2-1.2-1.2c-0.6,0-1.2,0.5-1.2,1.2C15.6,6.2,16.1,6.8,16.8,6.8z"/>
	<path id="XMLID_48_" style="fill-rule:evenodd;clip-rule:evenodd;fill:#FFFFFF;" d="M10.8,8.8c0.6,0,1.2-0.5,1.2-1.2
		c0-0.7-0.5-1.2-1.2-1.2c-0.6,0-1.2,0.5-1.2,1.2C9.6,8.3,10.2,8.8,10.8,8.8z"/>
	<path id="XMLID_47_" style="fill-rule:evenodd;clip-rule:evenodd;fill:#FFFFFF;" d="M13.2,8.8c0.6,0,1.2-0.5,1.2-1.2
		c0-0.7-0.5-1.2-1.2-1.2c-0.7,0-1.2,0.5-1.2,1.2C12,8.3,12.5,8.8,13.2,8.8z"/>
	<path id="XMLID_46_" style="fill-rule:evenodd;clip-rule:evenodd;fill:#FFFFFF;" d="M15.6,8.8c0.6,0,1.2-0.5,1.2-1.2
		c0-0.7-0.5-1.2-1.2-1.2c-0.7,0-1.2,0.5-1.2,1.2C14.4,8.3,14.9,8.8,15.6,8.8z"/>
	<path id="XMLID_45_" style="fill-rule:evenodd;clip-rule:evenodd;fill:#FFFFFF;" d="M18,8.8c0.6,0,1.2-0.5,1.2-1.2
		c0-0.7-0.5-1.2-1.2-1.2c-0.7,0-1.2,0.5-1.2,1.2C16.8,8.3,17.3,8.8,18,8.8z"/>
	<path id="XMLID_44_" style="fill-rule:evenodd;clip-rule:evenodd;fill:#FFFFFF;" d="M9.7,10.8c0.6,0,1.2-0.5,1.2-1.2
		c0-0.6-0.5-1.2-1.2-1.2C9.1,8.5,8.6,9,8.6,9.6C8.6,10.3,9.1,10.8,9.7,10.8z"/>
	<path id="XMLID_43_" style="fill-rule:evenodd;clip-rule:evenodd;fill:#FFFFFF;" d="M12.1,10.8c0.6,0,1.2-0.5,1.2-1.2
		c0-0.6-0.5-1.2-1.2-1.2c-0.6,0-1.1,0.5-1.1,1.2C10.9,10.3,11.4,10.8,12.1,10.8z"/>
	<path id="XMLID_42_" style="fill-rule:evenodd;clip-rule:evenodd;fill:#FFFFFF;" d="M14.4,10.8c0.6,0,1.2-0.5,1.2-1.2
		c0-0.6-0.5-1.2-1.2-1.2c-0.6,0-1.2,0.5-1.2,1.2C13.3,10.3,13.8,10.8,14.4,10.8z"/>
	<path id="XMLID_41_" style="fill-rule:evenodd;clip-rule:evenodd;fill:#FFFFFF;" d="M16.8,10.8c0.6,0,1.2-0.5,1.2-1.2
		c0-0.6-0.5-1.2-1.2-1.2c-0.6,0-1.2,0.5-1.2,1.2C15.6,10.3,16.1,10.8,16.8,10.8z"/>
	<path id="XMLID_40_" style="fill-rule:evenodd;clip-rule:evenodd;fill:#FFFFFF;" d="M19.1,10.8c0.6,0,1.2-0.5,1.2-1.2
		c0-0.6-0.5-1.2-1.2-1.2C18.5,8.5,18,9,18,9.6C18,10.3,18.5,10.8,19.1,10.8z"/>
	<path id="XMLID_39_" style="fill-rule:evenodd;clip-rule:evenodd;fill:#FFFFFF;" d="M8.3,12.9c0.6,0,1.2-0.5,1.2-1.2
		c0-0.6-0.5-1.2-1.2-1.2c-0.6,0-1.2,0.5-1.2,1.2C7.1,12.4,7.6,12.9,8.3,12.9z"/>
	<path id="XMLID_38_" style="fill-rule:evenodd;clip-rule:evenodd;fill:#FFFFFF;" d="M10.9,12.9c0.6,0,1.1-0.5,1.1-1.2
		c0-0.6-0.5-1.2-1.1-1.2c-0.6,0-1.2,0.5-1.2,1.2C9.8,12.4,10.3,12.9,10.9,12.9z"/>
	<path id="XMLID_37_" style="fill-rule:evenodd;clip-rule:evenodd;fill:#FFFFFF;" d="M13.3,12.9c0.6,0,1.2-0.5,1.2-1.2
		c0-0.6-0.5-1.2-1.2-1.2c-0.6,0-1.2,0.5-1.2,1.2C12.1,12.4,12.6,12.9,13.3,12.9z"/>
	<path id="XMLID_36_" style="fill-rule:evenodd;clip-rule:evenodd;fill:#FFFFFF;" d="M15.6,12.9c0.6,0,1.2-0.5,1.2-1.2
		c0-0.6-0.5-1.2-1.2-1.2c-0.6,0-1.2,0.5-1.2,1.2C14.4,12.4,15,12.9,15.6,12.9z"/>
	<path id="XMLID_35_" style="fill-rule:evenodd;clip-rule:evenodd;fill:#FFFFFF;" d="M18,12.9c0.6,0,1.2-0.5,1.2-1.2
		c0-0.6-0.5-1.2-1.2-1.2c-0.6,0-1.2,0.5-1.2,1.2C16.8,12.4,17.3,12.9,18,12.9z"/>
	<path id="XMLID_34_" style="fill-rule:evenodd;clip-rule:evenodd;fill:#FFFFFF;" d="M20.3,12.9c0.6,0,1.2-0.5,1.2-1.2
		c0-0.6-0.5-1.2-1.2-1.2c-0.6,0-1.2,0.5-1.2,1.2C19.1,12.4,19.7,12.9,20.3,12.9z"/>
	<path id="XMLID_33_" style="fill-rule:evenodd;clip-rule:evenodd;fill:#FFFFFF;" d="M6,15c0.6,0,1.2-0.5,1.2-1.2
		c0-0.6-0.5-1.2-1.2-1.2c-0.6,0-1.2,0.5-1.2,1.2C4.8,14.4,5.3,15,6,15z"/>
	<path id="XMLID_32_" style="fill-rule:evenodd;clip-rule:evenodd;fill:#FFFFFF;" d="M9.6,15.1c0.6,0,1.2-0.5,1.2-1.2
		c0-0.6-0.5-1.2-1.2-1.2c-0.6,0-1.2,0.5-1.2,1.2C8.5,14.6,9,15.1,9.6,15.1z"/>
	<path id="XMLID_31_" style="fill-rule:evenodd;clip-rule:evenodd;fill:#FFFFFF;" d="M12,15.7c0.6,0,1.2-0.5,1.2-1.2
		c0-0.6-0.5-1.2-1.2-1.2c-0.6,0-1.1,0.5-1.1,1.2C10.9,15.2,11.4,15.7,12,15.7z"/>
	<path id="XMLID_30_" style="fill-rule:evenodd;clip-rule:evenodd;fill:#FFFFFF;" d="M14.4,15c0.6,0,1.2-0.5,1.2-1.2
		c0-0.6-0.5-1.2-1.2-1.2c-0.6,0-1.2,0.5-1.2,1.2C13.3,14.4,13.8,15,14.4,15z"/>
	<path id="XMLID_29_" style="fill-rule:evenodd;clip-rule:evenodd;fill:#FFFFFF;" d="M16.8,15c0.6,0,1.2-0.5,1.2-1.2
		c0-0.6-0.5-1.2-1.2-1.2c-0.6,0-1.2,0.5-1.2,1.2C15.6,14.4,16.1,15,16.8,15z"/>
	<path id="XMLID_28_" style="fill-rule:evenodd;clip-rule:evenodd;fill:#FFFFFF;" d="M19.1,15c0.6,0,1.2-0.5,1.2-1.2
		c0-0.6-0.5-1.2-1.2-1.2c-0.6,0-1.2,0.5-1.2,1.2C18,14.5,18.5,15,19.1,15z"/>
	<path id="XMLID_27_" style="fill-rule:evenodd;clip-rule:evenodd;fill:#FFFFFF;" d="M21.9,15.1c0.6,0,1.2-0.5,1.2-1.2
		c0-0.6-0.5-1.2-1.2-1.2c-0.6,0-1.2,0.5-1.2,1.2C20.7,14.5,21.2,15.1,21.9,15.1z"/>
	<path id="XMLID_26_" style="fill-rule:evenodd;clip-rule:evenodd;fill:#FFFFFF;" d="M15.6,16.7c0.6,0,1-0.5,1-1c0-0.6-0.5-1-1-1
		c-0.6,0-1,0.5-1,1C14.6,16.2,15.1,16.7,15.6,16.7z"/>
	<path id="XMLID_25_" style="fill-rule:evenodd;clip-rule:evenodd;fill:#FFFFFF;" d="M17.8,17.1c0.5,0,1-0.5,1-1c0-0.6-0.5-1-1-1
		c-0.6,0-1,0.5-1,1C16.7,16.6,17.2,17.1,17.8,17.1z"/>
	<path id="XMLID_24_" style="fill-rule:evenodd;clip-rule:evenodd;fill:#FFFFFF;" d="M19.8,17.1c0.6,0,1-0.5,1-1c0-0.6-0.5-1-1-1
		c-0.6,0-1,0.5-1,1C18.8,16.6,19.2,17.1,19.8,17.1z"/>
	<path id="XMLID_23_" style="fill-rule:evenodd;clip-rule:evenodd;fill:#FFFFFF;" d="M21.8,17.1c0.6,0,1-0.5,1-1c0-0.6-0.5-1-1-1
		c-0.6,0-1,0.5-1,1C20.8,16.6,21.3,17.1,21.8,17.1z"/>
	<path id="XMLID_22_" style="fill-rule:evenodd;clip-rule:evenodd;fill:#FFFFFF;" d="M23.9,17.1c0.6,0,1-0.5,1-1c0-0.6-0.5-1-1-1
		c-0.6,0-1,0.5-1,1C22.8,16.6,23.3,17.1,23.9,17.1z"/>
	<path id="XMLID_21_" style="fill-rule:evenodd;clip-rule:evenodd;fill:#FFFFFF;" d="M13.6,17.2c0.6,0,1-0.5,1-1c0-0.5-0.5-1-1-1
		c-0.6,0-1,0.5-1,1C12.6,16.8,13.1,17.2,13.6,17.2z"/>
	<path id="XMLID_20_" style="fill-rule:evenodd;clip-rule:evenodd;fill:#FFFFFF;" d="M10.4,17.2c0.6,0,1-0.5,1-1c0-0.5-0.5-1-1-1
		c-0.6,0-1,0.5-1,1C9.4,16.8,9.8,17.2,10.4,17.2z"/>
	<path id="XMLID_19_" style="fill-rule:evenodd;clip-rule:evenodd;fill:#FFFFFF;" d="M7.2,17.2c0.6,0,1-0.5,1-1c0-0.6-0.5-1-1-1
		c-0.6,0-1,0.5-1,1C6.2,16.8,6.7,17.2,7.2,17.2z"/>
	<path id="XMLID_18_" style="fill-rule:evenodd;clip-rule:evenodd;fill:#FFFFFF;" d="M8.7,19.4c0.5,0,1-0.5,1-1c0-0.6-0.5-1-1-1
		c-0.6,0-1,0.5-1,1C7.7,19,8.1,19.4,8.7,19.4z"/>
	<path id="XMLID_17_" style="fill-rule:evenodd;clip-rule:evenodd;fill:#FFFFFF;" d="M4.9,19.6c0.6,0,1-0.5,1-1c0-0.6-0.5-1-1-1
		c-0.6,0-1,0.5-1,1C3.9,19.1,4.3,19.6,4.9,19.6z"/>
	<path id="XMLID_16_" style="fill-rule:evenodd;clip-rule:evenodd;fill:#FFFFFF;" d="M2,18.4c0.6,0,1-0.5,1-1c0-0.5-0.5-1-1-1
		c-0.5,0-1,0.5-1,1C1,18,1.5,18.4,2,18.4z"/>
	<path id="XMLID_15_" style="fill-rule:evenodd;clip-rule:evenodd;fill:#FFFFFF;" d="M11.8,19.7c0.5,0,1-0.5,1-1c0-0.5-0.5-1-1-1
		c-0.6,0-1,0.5-1,1C10.8,19.3,11.3,19.7,11.8,19.7z"/>
	<path id="XMLID_14_" style="fill-rule:evenodd;clip-rule:evenodd;fill:#FFFFFF;" d="M14,19.4c0.6,0,1-0.5,1-1c0-0.5-0.5-1-1-1
		c-0.6,0-1,0.5-1,1C13,19,13.4,19.4,14,19.4z"/>
	<path id="XMLID_13_" style="fill-rule:evenodd;clip-rule:evenodd;fill:#FFFFFF;" d="M9.8,22.1c0.5,0,1-0.5,1-1c0-0.5-0.5-1-1-1
		c-0.6,0-1,0.5-1,1C8.8,21.7,9.3,22.1,9.8,22.1z"/>
	<path id="XMLID_12_" style="fill-rule:evenodd;clip-rule:evenodd;fill:#FFFFFF;" d="M6.7,22.7c0.5,0,0.8-0.4,0.8-0.8
		c0-0.5-0.4-0.8-0.8-0.8c-0.5,0-0.8,0.4-0.8,0.8C5.9,22.3,6.3,22.7,6.7,22.7z"/>
	<path id="XMLID_11_" style="fill-rule:evenodd;clip-rule:evenodd;fill:#FFFFFF;" d="M16.4,19c0.6,0,1-0.5,1-1c0-0.5-0.5-1-1-1
		c-0.6,0-1,0.5-1,1C15.4,18.5,15.8,19,16.4,19z"/>
	<circle id="XMLID_10_" style="fill-rule:evenodd;clip-rule:evenodd;fill:#FFFFFF;" cx="15.5" cy="19.9" r="1"/>
	<path id="XMLID_9_" style="fill-rule:evenodd;clip-rule:evenodd;fill:#FFFFFF;" d="M18.7,19.1c0.6,0,1-0.5,1-1c0-0.6-0.5-1-1-1
		c-0.6,0-1,0.5-1,1C17.7,18.7,18.1,19.1,18.7,19.1z"/>
	<path id="XMLID_8_" style="fill-rule:evenodd;clip-rule:evenodd;fill:#FFFFFF;" d="M21.4,19.1c0.6,0,1-0.5,1-1c0-0.6-0.5-1-1-1
		c-0.5,0-1,0.4-1,1C20.4,18.7,20.9,19.1,21.4,19.1z"/>
	<path id="XMLID_7_" style="fill-rule:evenodd;clip-rule:evenodd;fill:#FFFFFF;" d="M23.5,19.1c0.5,0,1-0.5,1-1c0-0.6-0.5-1-1-1
		c-0.6,0-1,0.5-1,1C22.5,18.7,22.9,19.1,23.5,19.1z"/>
	<path id="XMLID_6_" style="fill-rule:evenodd;clip-rule:evenodd;fill:#FFFFFF;" d="M25.5,19.1c0.5,0,1-0.5,1-1c0-0.6-0.5-1-1-1
		c-0.6,0-1,0.5-1,1C24.5,18.7,25,19.1,25.5,19.1z"/>
	<path id="XMLID_5_" style="fill-rule:evenodd;clip-rule:evenodd;fill:#FFFFFF;" d="M20.5,21c0.6,0,1-0.5,1-1c0-0.5-0.5-1-1-1
		c-0.5,0-1,0.5-1,1C19.5,20.5,19.9,21,20.5,21z"/>
	<path id="XMLID_4_" style="fill-rule:evenodd;clip-rule:evenodd;fill:#FFFFFF;" d="M22.5,21c0.5,0,1-0.5,1-1c0-0.5-0.5-1-1-1
		c-0.6,0-1,0.5-1,1C21.5,20.5,22,21,22.5,21z"/>
	<path id="XMLID_3_" style="fill-rule:evenodd;clip-rule:evenodd;fill:#FFFFFF;" d="M24.6,21c0.5,0,1-0.5,1-1c0-0.5-0.5-1-1-1
		c-0.6,0-1,0.5-1,1C23.6,20.5,24,21,24.6,21z"/>
	<path id="XMLID_2_" style="fill-rule:evenodd;clip-rule:evenodd;fill:#FFFFFF;" d="M26.6,21c0.5,0,1-0.5,1-1c0-0.5-0.5-1-1-1
		c-0.6,0-1,0.5-1,1C25.6,20.5,26,21,26.6,21z"/>
	<path id="XMLID_1_" style="fill-rule:evenodd;clip-rule:evenodd;fill:#FFFFFF;" d="M1.1,21.7c0.4,0,0.6-0.3,0.6-0.7
		c0-0.3-0.3-0.6-0.6-0.6c-0.4,0-0.7,0.3-0.7,0.6C0.5,21.4,0.8,21.7,1.1,21.7z"/>
</g>
</svg>
