<svg xmlns:svg="http://www.w3.org/2000/svg" xmlns="http://www.w3.org/2000/svg" data-name="Layer 1" viewBox="0 0 1020 77" version="1.1" width="1020" height="77"><defs><style>.cls-1{fill:#231f20;}</style></defs><title>PJ logo</title><path class="cls-1" d="m23.67 58.31 9.17 0 0 1.18-32.84 0 0-1.18 9.19 0 0-56.93-9.19 0 0-1.16 9.19 0c3.39 0 6.79-0.08 10.18-0.16 3.39-0.08 6.79-0.09 10.19-0.09 12 0 29.56 2.76 29.56 15.56 0 8.66-10 15.74-31.35 15.74l-4.1 0zm0-28.22 3.1 0c11.38 0 16.07-3.81 16.07-14.05 0-9.66-3.7-14.89-15.28-14.89-1.41 0-2.8 0.16-3.9 0.24zM81.64-0.03l59.74 0 0 14.23-1.3 0c-1.4-3.67-5.69-13.07-18.88-13.07l-15.88 0 0 25.73 5.59 0c9.78 0 13.18-4.92 15.08-12.42l1.3 0 0 25.9-1.3 0c-1.79-6.49-4.79-12.31-14-12.31l-6.69 0 0 30 16.37 0c12.29 0 19.79-7.41 22.48-17.06l1.3 0 0 18.27-63.81 0 0-1.18 9.2 0 0-56.93-9.2 0zM192.07 1.13l-3.6 0c-9.89 0-15.27 2.76-19.17 14.07l-1.3 0 0-15.23 62.62 0 0 15.23-1.29 0C225.42 3.89 220.04 1.13 210.15 1.13l-3.6 0 0 56.93 9.19 0 0 1.18-32.9 0 0-1.18 9.19 0zM253.14-0.03l59.7 0 0 14.23-1.3 0c-1.38-3.66-5.7-13.07-18.85-13.07l-15.85 0 0 25.73 5.59 0c9.8 0 13.19-4.92 15.08-12.42l1.3 0 0 25.9-1.3 0c-1.79-6.49-4.79-12.31-14-12.31l-6.67 0 0 30 16.38 0c12.29 0 19.78-7.41 22.48-17.06l1.31 0 0 18.27-63.87 0 0-1.18 9.19 0 0-56.93-9.19 0zM348.66 1.38l-9.18 0 0-1.16 15.07 0c2.81 0 5.5-0.08 8.3-0.16 2.8-0.08 5.6-0.09 8.29-0.09 10.48 0 24.46 3.16 24.46 14.24 0 8.91-10.68 12.33-19.67 12.91l0 0.4c13 1.92 20.77 3.09 21.87 15.07 1.31 13.9 1.2 16.23 5.89 16.23 2.71 0 4.3-1.67 5.6-2.75l1 0.75c-2.71 2.25-4.4 3.91-11.69 3.91-14.68 0-15.19-8.83-15.48-14.65-0.5-9.06-1-17.8-13.39-17.8l-6.59 0 0 30 9.19 0 0 1.18-32.85 0 0-1.15 9.18 0zm14.49 25.73 4.1 0c12 0 13-5.92 13-12 0-9.75-2.71-14-12.69-14-1.49 0-2.9 0.16-4.39 0.24zM516.26 58.77c0 5.41-0.3 18.23-20 18.23-7 0-15.78-1.83-15.78-9 0-1 0-5.92 7.89-5.92 2.1 0 6.09 0.42 6.09 4 0 1.5-1.4 5.5-1.4 6.41 0 3.32 3.3 3.32 4.4 3.32 4.29 0 4.29-3.4 4.29-5.49l0-69.19-9.19 0 0-1.16 32.87 0 0 1.16-9.19 0zM538.41 60.39l8.49 0 29.76-60.42 2.7 0 31.48 60.42 8.58 0 0 1.18-33.58 0 0-1.18 9.28 0-11.58-22.3-24 0-11.09 22.3 8.89 0 0 1.18-19 0zm32.86-46.18-11.18 22.71 23 0zM690.89 18.27l-1.3 0c-2.9-7.41-7.39-17.14-21.75-17.14-19.4 0-21.2 12.64-21.2 30.13 0 23 6.2 29.38 21.18 29.38 11.88 0 19.68-8.83 22.07-17.73l1.59 0 0 17.65-1.59 0c-0.69-1.34-1.39-1.76-3.29-1.76-3.1 0-10.39 3-18.89 3-19.57 0-37.35-13.57-37.35-30.71 0-18.81 20.27-31.13 37.35-31.13 8.29 0 14.88 3.07 18.49 3.07 1.79 0 2.69-0.24 3.1-1.74l1.59 0zM714.44-0.03l32.87 0 0 1.16-9.19 0 0 26.64 0.8 0 30.56-26.64-10.09 0 0-1.16 20 0 0 1.16-8 0-22.28 19.48 34.55 37.45 6.18 0 0 1.18-33.35 0 0-1.18 9 0-26.57-29.13-0.8 0 0 29.13 9.19 0 0 1.18-32.87 0 0-1.18 9.19 0 0-56.93-9.19 0zM806.84 41.41l1.48 0a24.8 24.8 0 0 0 8 13.36c6 4.91 11.3 4.91 15.23 4.91 13.76 0 17.29-8.45 17.29-12.71 0-16.3-40.48-6.63-40.48-30.14 0-8.68 9.83-16.87 23.69-16.87 8.64 0 12.77 3 15.92 3 1.77 0 2.16-0.4 2.74-1.71l1.58 0 0 15.59-1.28 0c-3-7.53-6.3-15.72-19.07-15.72-10.44 0-16.22 5.41-16.22 10.23 0 15.16 42.16 7.87 42.16 29.58 0 10.73-11.1 19.91-27.14 19.91-8 0-16.59-3.13-19.25-3.13-1.77 0-2.36 0.42-3 1.9l-1.65 0zM952.19-0.03l23.5 0 33.15 39.51 0.21 0 0-38.35-9.17 0 0-1.16 19.96 0 0 1.16-9.16 0 0 57.94-2.69 0-44.85-53.21-0.19 0 0 52 9.16 0 0 1.21-19.92 0 0-1.16 9.15 0 0-56.78-9.15 0zM907.05-0.03c14.93 0 30.19 9.52 30.19 24.7 0 13.33-14.12 24.78-30.19 24.78-15.9 0-30.26-10.86-30.26-24.58 0-15.04 16.38-24.9 30.26-24.9zm0 48.55c15.74 0 16.87-10.39 16.87-24.24 0-12.45-0.8-23.38-16.87-23.38-14.95 0-16.93 10-16.93 24 0 18.48 4.94 23.62 16.93 23.62z" fill="#231f20"/><rect class="cls-1" x="883.52" y="58.84" width="46.79" height="1.36" fill="#231f20"/></svg>