<?xml version="1.0" encoding="UTF-8" standalone="no"?>
<svg
   xmlns:dc="http://purl.org/dc/elements/1.1/"
   xmlns:cc="http://creativecommons.org/ns#"
   xmlns:rdf="http://www.w3.org/1999/02/22-rdf-syntax-ns#"
   xmlns:svg="http://www.w3.org/2000/svg"
   xmlns="http://www.w3.org/2000/svg"
   xmlns:sodipodi="http://sodipodi.sourceforge.net/DTD/sodipodi-0.dtd"
   xmlns:inkscape="http://www.inkscape.org/namespaces/inkscape"
   enable-background="new 0 0 50 50"
   height="50px"
   id="Layer_1"
   version="1.1"
   viewBox="0 0 50 50"
   width="50px"
   xml:space="preserve"
   inkscape:version="0.91 r13725"
   sodipodi:docname="1455552331_user_male.svg"><metadata
     id="metadata3354"><rdf:RDF><cc:Work
         rdf:about=""><dc:format>image/svg+xml</dc:format><dc:type
           rdf:resource="http://purl.org/dc/dcmitype/StillImage" /></cc:Work></rdf:RDF></metadata><defs
     id="defs3352" /><sodipodi:namedview
     pagecolor="#ffffff"
     bordercolor="#666666"
     borderopacity="1"
     objecttolerance="10"
     gridtolerance="10"
     guidetolerance="10"
     inkscape:pageopacity="0"
     inkscape:pageshadow="2"
     inkscape:window-width="1128"
     inkscape:window-height="737"
     id="namedview3350"
     showgrid="false"
     inkscape:zoom="4.72"
     inkscape:cx="25"
     inkscape:cy="25"
     inkscape:window-x="0"
     inkscape:window-y="0"
     inkscape:window-maximized="0"
     inkscape:current-layer="Layer_1" /><rect
     fill="none"
     height="50"
     width="50"
     id="rect3346" /><path
     d="M30.933,32.528c-0.146-1.612-0.09-2.737-0.09-4.21c0.73-0.383,2.038-2.825,2.259-4.888c0.574-0.047,1.479-0.607,1.744-2.818  c0.143-1.187-0.425-1.855-0.771-2.065c0.934-2.809,2.874-11.499-3.588-12.397c-0.665-1.168-2.368-1.759-4.581-1.759  c-8.854,0.163-9.922,6.686-7.981,14.156c-0.345,0.21-0.913,0.878-0.771,2.065c0.266,2.211,1.17,2.771,1.744,2.818  c0.22,2.062,1.58,4.505,2.312,4.888c0,1.473,0.055,2.598-0.091,4.21C19.367,37.238,7.546,35.916,7,45h38  C44.455,35.916,32.685,37.238,30.933,32.528z"
     id="path3348"
     style="fill:#465b88" /></svg>