<?xml version="1.0" encoding="UTF-8" standalone="no"?>
<svg
   xmlns:dc="http://purl.org/dc/elements/1.1/"
   xmlns:cc="http://creativecommons.org/ns#"
   xmlns:rdf="http://www.w3.org/1999/02/22-rdf-syntax-ns#"
   xmlns:svg="http://www.w3.org/2000/svg"
   xmlns="http://www.w3.org/2000/svg"
   xmlns:sodipodi="http://sodipodi.sourceforge.net/DTD/sodipodi-0.dtd"
   xmlns:inkscape="http://www.inkscape.org/namespaces/inkscape"
   enable-background="new 0 0 500 500"
   height="500px"
   id="Layer_1"
   version="1.1"
   viewBox="0 0 500 500"
   width="500px"
   xml:space="preserve"
   inkscape:version="0.91 r13725"
   sodipodi:docname="1455551701_103.svg"><metadata
     id="metadata3343"><rdf:RDF><cc:Work
         rdf:about=""><dc:format>image/svg+xml</dc:format><dc:type
           rdf:resource="http://purl.org/dc/dcmitype/StillImage" /></cc:Work></rdf:RDF></metadata><defs
     id="defs3341" /><sodipodi:namedview
     pagecolor="#ffffff"
     bordercolor="#666666"
     borderopacity="1"
     objecttolerance="10"
     gridtolerance="10"
     guidetolerance="10"
     inkscape:pageopacity="0"
     inkscape:pageshadow="2"
     inkscape:window-width="1365"
     inkscape:window-height="987"
     id="namedview3339"
     showgrid="false"
     inkscape:zoom="1.706"
     inkscape:cx="250"
     inkscape:cy="250"
     inkscape:window-x="314"
     inkscape:window-y="14"
     inkscape:window-maximized="1"
     inkscape:current-layer="Layer_1" /><path
     clip-rule="evenodd"
     d="M68.29,431.711c0,20.078,16.264,36.34,36.343,36.34h290.734  c20.078,0,36.345-16.262,36.345-36.34V250c0-20.079-16.267-36.342-36.345-36.342H177.317v-63.597  c0-40.157,32.525-72.685,72.683-72.685c40.158,0,72.685,32.528,72.685,72.685v4.541c0,12.538,10.176,22.715,22.711,22.715  c12.537,0,22.717-10.177,22.717-22.715v-4.541c0-65.232-52.882-118.111-118.112-118.111c-65.24,0-118.111,52.879-118.111,118.111  v63.597h-27.256c-20.079,0-36.343,16.263-36.343,36.342V431.711z M213.658,313.599c0-20.078,16.263-36.341,36.342-36.341  s36.341,16.263,36.341,36.341c0,12.812-6.634,24.079-16.625,30.529c0,0,3.55,21.446,7.542,46.699  c0,7.538-6.087,13.625-13.629,13.625h-27.258c-7.541,0-13.627-6.087-13.627-13.625l7.542-46.699  C220.294,337.678,213.658,326.41,213.658,313.599z"
     fill="#010101"
     fill-rule="evenodd"
     id="path3337"
     style="fill:#b3b3b3" /></svg>