<?xml version="1.0" encoding="UTF-8"?>
<svg width="69px" height="42px" viewBox="0 0 69 42" version="1.1" xmlns="http://www.w3.org/2000/svg" xmlns:xlink="http://www.w3.org/1999/xlink">
    <!-- Generator: Sketch 41 (35326) - http://www.bohemiancoding.com/sketch -->
    <title>logo_white</title>
    <desc>Created with Sketch.</desc>
    <defs></defs>
    <g id="Page-1" stroke="none" stroke-width="1" fill="none" fill-rule="evenodd">
        <g id="weltpixel_homepage-2" transform="translate(-80.000000, -14.000000)" fill="#000000">
            <g id="1_header">
                <g id="menu">
                    <g id="logo_white" transform="translate(80.000000, 14.000000)">
                        <path d="M68.3067033,29.10096 C67.5730033,29.2078691 66.9842033,29.2613236 66.5334033,29.2613236 C65.9369367,29.2613236 65.47847,29.1628145 65.1580033,28.9719055 C64.83677,28.7741236 64.6083033,28.5144873 64.4626367,28.1876509 C64.3254033,27.8608145 64.2564033,27.1300145 64.2564033,25.9807418 L64.2564033,12.1337236 L68.3067033,12.1337236 L68.3067033,9.01274182 L64.2564033,9.01274182 L64.2564033,0.737978182 L60.2429033,3.14419636 L60.2429033,9.01274182 L57.2866367,9.01274182 L57.2866367,12.1337236 L60.2429033,12.1337236 L60.2429033,25.7592873 C60.2429033,28.1647418 60.4123367,29.74776 60.74047,30.4945964 C61.06937,31.2483055 61.63517,31.8569236 62.4371033,32.3135782 C63.2467033,32.7786327 64.3783033,33.0061964 65.8449367,33.0061964 C66.7396367,33.0061964 67.7562367,32.8847782 68.88707,32.6480509 L68.3067033,29.10096 Z M53.2923033,32.6946327 L57.3196033,32.6946327 L57.3196033,0.000305454545 L53.2923033,0.000305454545 L53.2923033,32.6946327 Z M34.9835367,18.5734691 C35.1215367,16.5108873 35.81767,14.8591418 37.0788367,13.6251055 C38.3392367,12.3925964 39.89787,11.7763418 41.74707,11.7763418 C43.7879367,11.7763418 45.4531367,12.5521964 46.73807,14.09856 C47.57067,15.0867055 48.0828033,16.5872509 48.2591367,18.5734691 L34.9835367,18.5734691 Z M48.2131367,25.0666691 C47.6013367,26.7642327 46.7764033,27.9975055 45.7299033,28.7664873 C44.6826367,29.5431055 43.4207033,29.9310327 41.9464033,29.9310327 C39.9584367,29.9310327 38.30857,29.2384145 36.97917,27.8531782 C35.6482367,26.4755782 34.9076367,24.48096 34.7627367,21.8777236 L52.49267,21.8777236 C52.5080033,21.4050327 52.5149033,21.0476509 52.5149033,20.8040509 C52.5149033,16.8988145 51.5067367,13.8618327 49.4896367,11.7076145 C47.4794367,9.55339636 44.87967,8.47285091 41.7018367,8.47285091 C38.4159033,8.47285091 35.74867,9.57630545 33.6848033,11.7763418 C31.6286033,13.9756145 30.5974367,17.0660509 30.5974367,21.0552873 C30.5974367,24.9070691 31.61327,27.8989964 33.65337,30.0295418 C35.68657,32.1616145 38.44657,33.2268873 41.9234033,33.2268873 C44.6826367,33.2268873 46.9512033,32.5571782 48.73217,31.2253964 C50.50547,29.8852145 51.71987,28.0043782 52.3784367,25.5767782 L48.2131367,25.0666691 Z M7.27543667,32.6946327 L-0.00023,9.01274182 L4.16583667,9.01274182 L7.94780333,22.6848873 L9.35463667,27.7691782 C9.41597,27.5103055 9.82843667,25.8814691 10.58437,22.8819055 L14.36787,9.01274182 L18.51017,9.01274182 L22.07057,22.7452145 L23.2627367,27.2743418 L24.62357,22.6993964 L28.69687,9.01274182 L32.6176033,9.01274182 L25.1817033,32.6946327 L21.00107,32.6946327 L17.2183367,18.5123782 L16.29297,14.4704509 L11.4867367,32.6946327 L7.27543667,32.6946327 Z" id="Fill-1"></path>
                        <path d="M8.43854667,39.2631273 C8.55431333,39.2852727 8.65704667,39.3013091 8.74674667,39.312 C8.83721333,39.3234545 8.91311333,39.3288 8.97674667,39.3288 C9.20444667,39.3288 9.40071333,39.2409818 9.56631333,39.0661091 C9.73114667,38.8904727 9.81241333,38.6636727 9.81241333,38.3849455 C9.81241333,38.1925091 9.77408,38.0145818 9.69511333,37.8504 C9.61614667,37.6854545 9.50421333,37.5625091 9.36008,37.4808 C9.21594667,37.3990909 9.05188,37.3578545 8.86864667,37.3578545 C8.75671333,37.3578545 8.61334667,37.3792364 8.43854667,37.4204727 L8.43854667,39.2631273 Z M8.43854667,39.4494545 L8.43854667,40.7407636 C8.43854667,41.0187273 8.46921333,41.1920727 8.52978,41.2600364 C8.61334667,41.3554909 8.73984667,41.4036 8.90774667,41.4036 L9.07794667,41.4036 L9.07794667,41.5242545 L7.17201333,41.5242545 L7.17201333,41.4036 L7.33991333,41.4036 C7.52774667,41.4036 7.66191333,41.3425091 7.74241333,41.2203273 C7.78688,41.1531273 7.80911333,40.9935273 7.80911333,40.7407636 L7.80911333,37.8778909 C7.80911333,37.5991636 7.77921333,37.4258182 7.72018,37.3578545 C7.63508,37.2624 7.50781333,37.2142909 7.33991333,37.2142909 L7.17201333,37.2142909 L7.17201333,37.0936364 L8.80348,37.0936364 C9.20061333,37.0936364 9.51418,37.1341091 9.74418,37.2158182 C9.97418,37.2982909 10.16738,37.4349818 10.3253133,37.6297091 C10.48248,37.8236727 10.5614467,38.0527636 10.5614467,38.3192727 C10.5614467,38.6797091 10.4418467,38.9744727 10.20188,39.2012727 C9.96268,39.4280727 9.62381333,39.5410909 9.18681333,39.5410909 C9.08024667,39.5410909 8.96371333,39.5334545 8.83798,39.5181818 C8.71378,39.5029091 8.58114667,39.48 8.43854667,39.4494545 L8.43854667,39.4494545 Z" id="Fill-4"></path>
                        <path d="M23.4870633,41.4034473 L23.4870633,41.5241018 L21.58113,41.5241018 L21.58113,41.4034473 L21.73753,41.4034473 C21.92153,41.4034473 22.0556967,41.3499927 22.1392633,41.2438473 C22.19063,41.1735927 22.2166967,41.0063564 22.2166967,40.7406109 L22.2166967,37.8777382 C22.2166967,37.6539927 22.2036633,37.5058473 22.17453,37.4333018 C22.1522967,37.3790836 22.10783,37.3317382 22.0395967,37.2927927 C21.9437633,37.2408655 21.84333,37.2149018 21.73753,37.2149018 L21.58113,37.2149018 L21.58113,37.0934836 L23.4870633,37.0934836 L23.4870633,37.2149018 L23.3260633,37.2149018 C23.14513,37.2149018 23.0124967,37.2675927 22.92893,37.3745018 C22.8744967,37.4439927 22.8468967,37.6119927 22.8468967,37.8777382 L22.8468967,40.7406109 C22.8468967,40.96512 22.8614633,41.1125018 22.88983,41.1850473 C22.9112967,41.2392655 22.9580633,41.2858473 23.02783,41.3255564 C23.1213633,41.3782473 23.22103,41.4034473 23.3260633,41.4034473 L23.4870633,41.4034473 Z" id="Fill-6"></path>
                        <path d="M37.0096067,39.0707673 L37.9648733,40.48884 C38.2286067,40.8805855 38.42564,41.1287673 38.5536733,41.2318582 C38.6817067,41.3364764 38.84424,41.3929855 39.0412733,41.4036764 L39.0412733,41.5243309 L37.13074,41.5243309 L37.13074,41.4036764 C37.2580067,41.4021491 37.35154,41.3884036 37.4128733,41.3647309 C37.45964,41.34564 37.49644,41.3150945 37.52634,41.2753855 C37.5554733,41.2349127 37.5715733,41.1929127 37.5715733,41.1516764 C37.5715733,41.10204 37.56084,41.0524036 37.5409067,41.0020036 C37.5255733,40.9645855 37.4657733,40.8691309 37.36074,40.7141127 L36.60634,39.5762945 L35.6740733,40.7668036 C35.57594,40.8935673 35.5176733,40.9775673 35.4969733,41.0203309 C35.47704,41.0615673 35.46784,41.1066218 35.46784,41.1516764 C35.46784,41.2211673 35.4969733,41.2799673 35.5567733,41.3257855 C35.61504,41.37084 35.72774,41.3975673 35.8948733,41.4036764 L35.8948733,41.5243309 L34.3163067,41.5243309 L34.3163067,41.4036764 C34.4274733,41.3929855 34.5233067,41.37084 34.6045733,41.3349491 C34.74104,41.27844 34.86984,41.2020764 34.99174,41.1066218 C35.1144067,41.0104036 35.25394,40.8637855 35.4118733,40.66524 L36.46144,39.3449127 L35.5866733,38.0673491 C35.3474733,37.7206582 35.1450733,37.4946218 34.9794733,37.3861855 C34.81234,37.2777491 34.6206733,37.22124 34.40524,37.2143673 L34.40524,37.0937127 L36.46144,37.0937127 L36.46144,37.2143673 C36.28664,37.22124 36.1662733,37.2494945 36.10264,37.2991309 C36.03824,37.3495309 36.0068067,37.4052764 36.0068067,37.4656036 C36.0068067,37.5465491 36.0581733,37.6641491 36.1632067,37.8191673 L36.8447733,38.8348036 L37.6359733,37.8390218 C37.7279733,37.7206582 37.7847067,37.6404764 37.80464,37.5969491 C37.8261067,37.5534218 37.83684,37.5083673 37.83684,37.4633127 C37.83684,37.4167309 37.8238067,37.3762582 37.7969733,37.3418945 C37.7640067,37.2960764 37.7226067,37.2640036 37.6727733,37.2456764 C37.6221733,37.2265855 37.5186733,37.2166582 37.36074,37.2143673 L37.36074,37.0937127 L38.9393067,37.0937127 L38.9393067,37.2143673 C38.81434,37.22124 38.7123733,37.2410945 38.6334067,37.2731673 C38.51534,37.3235673 38.40724,37.3907673 38.30834,37.4762945 C38.2109733,37.5610582 38.0722067,37.7183673 37.89204,37.9459309 L37.0096067,39.0707673 Z" id="Fill-8"></path>
                        <path d="M51.1390433,37.3354036 L51.1390433,39.0871855 L52.1165433,39.0871855 C52.3710767,39.0871855 52.5397433,39.04824 52.62561,38.97264 C52.7390767,38.8726036 52.80271,38.6962036 52.8157433,38.4426764 L52.9368767,38.4426764 L52.9368767,39.9852218 L52.8157433,39.9852218 C52.78431,39.7698764 52.75441,39.6316582 52.7237433,39.5705673 C52.68541,39.4942036 52.6194767,39.43464 52.53131,39.3903491 C52.4408433,39.3475855 52.3028433,39.32544 52.1165433,39.32544 L51.1390433,39.32544 L51.1390433,40.7862764 C51.1390433,40.9817673 51.1482433,41.1024218 51.16511,41.1436582 C51.1827433,41.1871855 51.21341,41.2207855 51.2563433,41.2452218 C51.3015767,41.2704218 51.38361,41.28264 51.5070433,41.28264 L52.2614433,41.28264 C52.5121433,41.28264 52.6953767,41.2650764 52.80961,41.2307127 C52.92231,41.1963491 53.03271,41.1276218 53.1377433,41.0245309 C53.2726767,40.8886036 53.4114433,40.68624 53.5540433,40.4128582 L53.6851433,40.4128582 L53.3002767,41.5239491 L49.87251,41.5239491 L49.87251,41.4032945 L50.0304433,41.4032945 C50.1354767,41.4032945 50.2343767,41.3788582 50.3286767,41.3284582 C50.3984433,41.2940945 50.4467433,41.24064 50.4712767,41.1719127 C50.4965767,41.1024218 50.50961,40.9588582 50.50961,40.7435127 L50.50961,37.86384 C50.50961,37.5835855 50.4812433,37.41024 50.4237433,37.3453309 C50.3455433,37.2575127 50.2136767,37.2147491 50.0304433,37.2147491 L49.87251,37.2147491 L49.87251,37.0933309 L53.3002767,37.0933309 L53.3508767,38.0639127 L53.2228433,38.0639127 C53.1760767,37.8310036 53.1254767,37.6698764 53.06951,37.5835855 C53.0135433,37.4965309 52.93151,37.4300945 52.82111,37.3842764 C52.7344767,37.35144 52.5803767,37.3354036 52.3603433,37.3354036 L51.1390433,37.3354036 Z" id="Fill-11"></path>
                        <path d="M68.3067033,40.2997636 L68.4148033,40.3219091 L68.0345367,41.5246364 L64.5891367,41.5246364 L64.5891367,41.4032182 L64.75627,41.4032182 C64.9441033,41.4032182 65.0798033,41.3421273 65.1603033,41.2207091 C65.2063033,41.1512182 65.2293033,40.9893273 65.2293033,40.7365636 L65.2293033,37.8775091 C65.2293033,37.6010727 65.1986367,37.4284909 65.1373033,37.3582364 C65.0522033,37.2620182 64.9257033,37.2146727 64.75627,37.2146727 L64.5891367,37.2146727 L64.5891367,37.0932545 L66.60317,37.0932545 L66.60317,37.2146727 C66.3678033,37.2116182 66.2022033,37.2337636 66.10637,37.2795818 C66.0113033,37.3254 65.9469033,37.3834364 65.9116367,37.4529273 C65.87637,37.5224182 65.8595033,37.6896545 65.8595033,37.9538727 L65.8595033,40.7365636 C65.8595033,40.9175455 65.87637,41.0427818 65.9116367,41.1099818 C65.9377033,41.1558 65.9791033,41.1886364 66.03277,41.2107818 C66.0872033,41.2329273 66.25817,41.2436182 66.5449033,41.2436182 L66.8692033,41.2436182 C67.21037,41.2436182 67.4503367,41.2184182 67.5883367,41.1687818 C67.72557,41.1183818 67.85207,41.0298 67.9655367,40.9022727 C68.0790033,40.7755091 68.1932367,40.5731455 68.3067033,40.2997636" id="Fill-13"></path>
                    </g>
                </g>
            </g>
        </g>
    </g>
</svg>